<?xml version="1.0" standalone="no"?>
<!DOCTYPE svg PUBLIC "-//W3C//DTD SVG 20010904//EN"
 "http://www.w3.org/TR/2001/REC-SVG-20010904/DTD/svg10.dtd">
<svg version="1.0" xmlns="http://www.w3.org/2000/svg"
 width="320.000000pt" height="320.000000pt" viewBox="0 0 320.000000 320.000000"
 preserveAspectRatio="xMidYMid meet">
<metadata>
Created by potrace 1.11, written by Peter Selinger 2001-2013
</metadata>
<g transform="translate(0.000000,320.000000) scale(0.100000,-0.100000)"
fill="#000000" stroke="none">
<path d="M1395 3189 c-109 -15 -265 -55 -367 -94 -516 -199 -880 -631 -999
-1185 -20 -90 -23 -135 -23 -310 0 -226 14 -321 75 -505 156 -473 541 -858
1014 -1014 184 -61 279 -75 505 -75 226 0 321 14 505 75 473 156 858 541 1014
1014 61 184 75 279 75 505 0 175 -3 220 -23 310 -108 505 -416 904 -866 1125
-225 111 -406 154 -665 160 -96 2 -206 0 -245 -6z m880 -403 c88 -24 194 -79
244 -127 161 -156 120 -443 -97 -671 -128 -133 -241 -198 -448 -255 -87 -24
-118 -27 -254 -27 -139 -1 -161 1 -217 22 -96 37 -173 113 -173 172 0 28 22
25 51 -6 67 -74 234 -103 399 -69 292 60 529 223 629 435 21 44 26 70 26 131
0 67 -3 80 -28 112 -56 73 -158 107 -328 107 -237 0 -474 -74 -756 -236 -336
-193 -502 -392 -491 -589 7 -134 58 -201 308 -400 91 -73 173 -141 183 -152
17 -19 21 -19 75 -6 31 7 111 14 177 14 177 1 283 -37 374 -136 97 -105 117
-241 49 -338 -37 -53 -138 -100 -138 -64 0 6 16 22 35 34 41 27 75 89 75 136
0 44 -44 130 -82 162 -87 73 -241 114 -382 100 -97 -9 -99 -11 -86 -71 7 -27
12 -90 12 -139 -1 -213 -109 -387 -297 -481 -139 -69 -312 -70 -381 -3 -49 47
-67 103 -62 191 9 169 123 297 418 468 l101 58 -68 49 c-37 28 -96 69 -131 92
-112 76 -257 198 -311 263 -65 79 -111 173 -118 241 -15 158 141 402 372 582
251 196 639 371 914 415 85 13 335 5 406 -14z"/>
<path d="M1190 1014 c-200 -123 -310 -259 -310 -383 0 -78 75 -97 184 -46 152
72 257 267 229 424 -5 25 -13 46 -18 48 -6 2 -44 -17 -85 -43z"/>
</g>
</svg>
